ffmpeg started on 2025-05-12 at 14:39:43
Report written to "D:\Convert\FFMetrics\reports\psnr_report-6.txt"
Log level: 32
Command line:
ffmpeg -hide_banner -nostdin -i "G:\\\xc0\xed\xe8\xec\xe5\\\xce\xed\xe3\xee\xe8\xed\xe3\xe8\\!_35_\xcb\xe5\xf2\xee_2024\\DreamCast\\\xc4\xe8\xf1\xea\xe2\xe0\xeb\xe8\xf4\xe8\xf6\xe8\xf0\xee\xe2\xe0\xed \xef\xee \xe6\xe8\xe7\xed\xe8\\[DC] Isekai Shikkaku - 04_Telegram_HEVC.mkv" -i "G:\\\xc0\xed\xe8\xec\xe5\\\xce\xed\xe3\xee\xe8\xed\xe3\xe8\\!_35_\xcb\xe5\xf2\xee_2024\\DreamCast\\\xc4\xe8\xf1\xea\xe2\xe0\xeb\xe8\xf4\xe8\xf6\xe8\xf0\xee\xe2\xe0\xed \xef\xee \xe6\xe8\xe7\xed\xe8\\[DC] Isekai Shikkaku - 04_Telegram.mp4" -lavfi "[0:v]settb=AVTB,setpts=PTS-STARTPTS,format=pix_fmts=yuv420p10,fps=24000/1001,scale=1920:1080:flags=bicubic[main];[1:v]settb=AVTB,setpts=PTS-STARTPTS,format=pix_fmts=yuv420p,fps=24000/1001,scale=1920:1080:flags=bicubic[ref];[main][ref]psnr=eof_action=endall:stats_file='D\\:/Convert/FFMetrics/logs/psnr_logfile-6.txt'" -f null -
Input #0, matroska,webm, from 'G:\Аниме\Онгоинги\!_35_Лето_2024\DreamCast\Дисквалифицирован по жизни\[DC] Isekai Shikkaku - 04_Telegram_HEVC.mkv':
  Metadata:
    COMPATIBLE_BRANDS: isomiso2avc1mp41
    MAJOR_BRAND     : isom
    MINOR_VERSION   : 512
    ENCODER         : Lavf61.7.100
  Duration: 00:23:46.60, start: -0.021000, bitrate: 1180 kb/s
  Stream #0:0: Video: hevc (Main 10), yuv420p10le(tv, bt709, progressive), 1920x1080 [SAR 1:1 DAR 16:9], 23.98 fps, 23.98 tbr, 1k tbn (default)
      Metadata:
        HANDLER_NAME    : VideoHandler
        VENDOR_ID       : [0][0][0][0]
        ENCODER         : Lavc61.19.100 libx265
        BPS             : 983043
        DURATION        : 00:23:46.508708333
        NUMBER_OF_FRAMES: 34202
        NUMBER_OF_BYTES : 175289915
        _STATISTICS_WRITING_APP: mkvpropedit v66.0.0 ('Josie') 64-bit
        _STATISTICS_WRITING_DATE_UTC: 2025-05-07 10:30:14
        _STATISTICS_TAGS: BPS DURATION NUMBER_OF_FRAMES NUMBER_OF_BYTES
  Stream #0:1: Audio: aac (LC), 48000 Hz, stereo, fltp (default)
      Metadata:
        HANDLER_NAME    : SoundHandler
        VENDOR_ID       : [0][0][0][0]
        ENCODER         : Lavc61.19.100 aac
        BPS             : 193319
        DURATION        : 00:23:46.602000000
        NUMBER_OF_FRAMES: 66873
        NUMBER_OF_BYTES : 34473769
        _STATISTICS_WRITING_APP: mkvpropedit v66.0.0 ('Josie') 64-bit
        _STATISTICS_WRITING_DATE_UTC: 2025-05-07 10:30:14
        _STATISTICS_TAGS: BPS DURATION NUMBER_OF_FRAMES NUMBER_OF_BYTES
Input #1, mov,mp4,m4a,3gp,3g2,mj2, from 'G:\Аниме\Онгоинги\!_35_Лето_2024\DreamCast\Дисквалифицирован по жизни\[DC] Isekai Shikkaku - 04_Telegram.mp4':
  Metadata:
    major_brand     : isom
    minor_version   : 512
    compatible_brands: isomiso2avc1mp41
    encoder         : Lavf61.1.100
  Duration: 00:23:46.57, start: 0.000000, bitrate: 3810 kb/s
  Stream #1:0[0x1](und): Video: h264 (High) (avc1 / 0x31637661), yuv420p(tv, bt709, progressive), 1920x1080 [SAR 1:1 DAR 16:9], 3662 kb/s, 23.98 fps, 23.98 tbr, 24k tbn (default)
      Metadata:
        handler_name    : VideoHandler
        vendor_id       : [0][0][0][0]
        encoder         : Lavc61.3.100 h264_qsv
  Stream #1:1[0x2](und): Audio: aac (HE-AACv2) (mp4a / 0x6134706D), 48000 Hz, stereo, fltp, 144 kb/s (default)
      Metadata:
        handler_name    : SoundHandler
        vendor_id       : [0][0][0][0]
Stream mapping:
  Stream #0:0 (hevc) -> settb:default
  Stream #1:0 (h264) -> settb:default
  psnr:default -> Stream #0:0 (wrapped_avframe)
  Stream #0:1 -> #0:1 (aac (native) -> pcm_s16le (native))
Output #0, null, to 'pipe:':
  Metadata:
    COMPATIBLE_BRANDS: isomiso2avc1mp41
    MAJOR_BRAND     : isom
    MINOR_VERSION   : 512
    encoder         : Lavf61.7.100
  Stream #0:0: Video: wrapped_avframe, yuv420p10le(tv, bt709, progressive), 1920x1080 [SAR 1:1 DAR 16:9], q=2-31, 200 kb/s, 23.98 fps, 23.98 tbn
      Metadata:
        encoder         : Lavc61.19.100 wrapped_avframe
  Stream #0:1: Audio: pcm_s16le, 48000 Hz, stereo, s16, 1536 kb/s (default)
      Metadata:
        HANDLER_NAME    : SoundHandler
        VENDOR_ID       : [0][0][0][0]
        _STATISTICS_TAGS: BPS DURATION NUMBER_OF_FRAMES NUMBER_OF_BYTES
        BPS             : 193319
        DURATION        : 00:23:46.602000000
        NUMBER_OF_FRAMES: 66873
        NUMBER_OF_BYTES : 34473769
        _STATISTICS_WRITING_APP: mkvpropedit v66.0.0 ('Josie') 64-bit
        _STATISTICS_WRITING_DATE_UTC: 2025-05-07 10:30:14
        encoder         : Lavc61.19.100 pcm_s16le
frame=  155 fps=0.0 q=-0.0 size=N/A time=00:00:06.46 bitrate=N/A speed=12.6x    frame=  396 fps=388 q=-0.0 size=N/A time=00:00:16.51 bitrate=N/A speed=16.2x    frame=  610 fps=395 q=-0.0 size=N/A time=00:00:25.44 bitrate=N/A speed=16.5x    frame=  869 fps=424 q=-0.0 size=N/A time=00:00:36.24 bitrate=N/A speed=17.7x    frame= 1130 fps=439 q=-0.0 size=N/A time=00:00:47.13 bitrate=N/A speed=18.3x    frame= 1368 fps=443 q=-0.0 size=N/A time=00:00:57.05 bitrate=N/A speed=18.5x    frame= 1607 fps=445 q=-0.0 size=N/A time=00:01:07.02 bitrate=N/A speed=18.6x    frame= 1865 fps=452 q=-0.0 size=N/A time=00:01:17.78 bitrate=N/A speed=18.9x    frame= 2095 fps=452 q=-0.0 size=N/A time=00:01:27.42 bitrate=N/A speed=18.9x    frame= 2371 fps=460 q=-0.0 size=N/A time=00:01:38.89 bitrate=N/A speed=19.2x    frame= 2606 fps=460 q=-0.0 size=N/A time=00:01:48.69 bitrate=N/A speed=19.2x    frame= 2775 fps=448 q=-0.0 size=N/A time=00:01:55.74 bitrate=N/A speed=18.7x    frame= 3017 fps=450 q=-0.0 size=N/A time=00:02:05.83 bitrate=N/A speed=18.8x    frame= 3272 fps=453 q=-0.0 size=N/A time=00:02:16.46 bitrate=N/A speed=18.9x    frame= 3451 fps=447 q=-0.0 size=N/A time=00:02:23.93 bitrate=N/A speed=18.6x    frame= 3667 fps=444 q=-0.0 size=N/A time=00:02:32.94 bitrate=N/A speed=18.5x    frame= 3837 fps=438 q=-0.0 size=N/A time=00:02:40.03 bitrate=N/A speed=18.3x    frame= 4033 fps=434 q=-0.0 size=N/A time=00:02:48.20 bitrate=N/A speed=18.1x    frame= 4216 fps=431 q=-0.0 size=N/A time=00:02:55.84 bitrate=N/A speed=  18x    frame= 4441 fps=431 q=-0.0 size=N/A time=00:03:05.22 bitrate=N/A speed=  18x    frame= 4616 fps=427 q=-0.0 size=N/A time=00:03:12.52 bitrate=N/A speed=17.8x    frame= 4815 fps=424 q=-0.0 size=N/A time=00:03:20.82 bitrate=N/A speed=17.7x    frame= 5038 fps=425 q=-0.0 size=N/A time=00:03:30.12 bitrate=N/A speed=17.7x    frame= 5286 fps=427 q=-0.0 size=N/A time=00:03:40.47 bitrate=N/A speed=17.8x    frame= 5524 fps=428 q=-0.0 size=N/A time=00:03:50.39 bitrate=N/A speed=17.9x    frame= 5743 fps=428 q=-0.0 size=N/A time=00:03:59.53 bitrate=N/A speed=17.9x    frame= 5974 fps=429 q=-0.0 size=N/A time=00:04:09.16 bitrate=N/A speed=17.9x    frame= 6183 fps=428 q=-0.0 size=N/A time=00:04:17.88 bitrate=N/A speed=17.9x    frame= 6408 fps=429 q=-0.0 size=N/A time=00:04:27.26 bitrate=N/A speed=17.9x    frame= 6647 fps=430 q=-0.0 size=N/A time=00:04:37.23 bitrate=N/A speed=17.9x    frame= 6887 fps=431 q=-0.0 size=N/A time=00:04:47.24 bitrate=N/A speed=  18x    frame= 7074 fps=429 q=-0.0 size=N/A time=00:04:55.04 bitrate=N/A speed=17.9x    frame= 7320 fps=430 q=-0.0 size=N/A time=00:05:05.30 bitrate=N/A speed=17.9x    frame= 7576 fps=432 q=-0.0 size=N/A time=00:05:15.98 bitrate=N/A speed=  18x    frame= 7852 fps=435 q=-0.0 size=N/A time=00:05:27.49 bitrate=N/A speed=18.1x    frame= 8088 fps=436 q=-0.0 size=N/A time=00:05:37.33 bitrate=N/A speed=18.2x    frame= 8299 fps=435 q=-0.0 size=N/A time=00:05:46.13 bitrate=N/A speed=18.1x    frame= 8521 fps=435 q=-0.0 size=N/A time=00:05:55.39 bitrate=N/A speed=18.1x    frame= 8771 fps=436 q=-0.0 size=N/A time=00:06:05.86 bitrate=N/A speed=18.2x    frame= 9019 fps=437 q=-0.0 size=N/A time=00:06:16.16 bitrate=N/A speed=18.2x    frame= 9257 fps=438 q=-0.0 size=N/A time=00:06:26.09 bitrate=N/A speed=18.3x    frame= 9509 fps=439 q=-0.0 size=N/A time=00:06:36.60 bitrate=N/A speed=18.3x    frame= 9745 fps=440 q=-0.0 size=N/A time=00:06:46.44 bitrate=N/A speed=18.3x    frame=10009 fps=441 q=-0.0 size=N/A time=00:06:57.45 bitrate=N/A speed=18.4x    frame=10276 fps=443 q=-0.0 size=N/A time=00:07:08.59 bitrate=N/A speed=18.5x    frame=10544 fps=444 q=-0.0 size=N/A time=00:07:19.77 bitrate=N/A speed=18.5x    frame=10810 fps=446 q=-0.0 size=N/A time=00:07:30.86 bitrate=N/A speed=18.6x    frame=11040 fps=446 q=-0.0 size=N/A time=00:07:40.46 bitrate=N/A speed=18.6x    frame=11280 fps=447 q=-0.0 size=N/A time=00:07:50.47 bitrate=N/A speed=18.6x    frame=11513 fps=447 q=-0.0 size=N/A time=00:08:00.18 bitrate=N/A speed=18.6x    frame=11737 fps=446 q=-0.0 size=N/A time=00:08:09.53 bitrate=N/A speed=18.6x    frame=11961 fps=446 q=-0.0 size=N/A time=00:08:18.87 bitrate=N/A speed=18.6x    frame=12203 fps=447 q=-0.0 size=N/A time=00:08:28.96 bitrate=N/A speed=18.6x    frame=12449 fps=447 q=-0.0 size=N/A time=00:08:39.22 bitrate=N/A speed=18.7x    frame=12685 fps=447 q=-0.0 size=N/A time=00:08:49.07 bitrate=N/A speed=18.7x    frame=12930 fps=448 q=-0.0 size=N/A time=00:08:59.28 bitrate=N/A speed=18.7x    frame=13204 fps=449 q=-0.0 size=N/A time=00:09:10.71 bitrate=N/A speed=18.7x    frame=13445 fps=450 q=-0.0 size=N/A time=00:09:20.76 bitrate=N/A speed=18.8x    frame=13657 fps=449 q=-0.0 size=N/A time=00:09:29.61 bitrate=N/A speed=18.7x    frame=13905 fps=450 q=-0.0 size=N/A time=00:09:39.95 bitrate=N/A speed=18.7x    frame=14145 fps=450 q=-0.0 size=N/A time=00:09:49.96 bitrate=N/A speed=18.8x    frame=14365 fps=449 q=-0.0 size=N/A time=00:09:59.14 bitrate=N/A speed=18.7x    frame=14612 fps=450 q=-0.0 size=N/A time=00:10:09.44 bitrate=N/A speed=18.8x    frame=14850 fps=450 q=-0.0 size=N/A time=00:10:19.36 bitrate=N/A speed=18.8x    frame=15122 fps=451 q=-0.0 size=N/A time=00:10:30.71 bitrate=N/A speed=18.8x    frame=15377 fps=452 q=-0.0 size=N/A time=00:10:41.34 bitrate=N/A speed=18.9x    frame=15643 fps=453 q=-0.0 size=N/A time=00:10:52.44 bitrate=N/A speed=18.9x    frame=15898 fps=454 q=-0.0 size=N/A time=00:11:03.07 bitrate=N/A speed=18.9x    frame=16134 fps=453 q=-0.0 size=N/A time=00:11:12.92 bitrate=N/A speed=18.9x    frame=16410 fps=455 q=-0.0 size=N/A time=00:11:24.43 bitrate=N/A speed=  19x    frame=16664 fps=455 q=-0.0 size=N/A time=00:11:35.02 bitrate=N/A speed=  19x    frame=16918 fps=456 q=-0.0 size=N/A time=00:11:45.62 bitrate=N/A speed=  19x    frame=17146 fps=456 q=-0.0 size=N/A time=00:11:55.13 bitrate=N/A speed=  19x    frame=17376 fps=455 q=-0.0 size=N/A time=00:12:04.72 bitrate=N/A speed=  19x    frame=17653 fps=456 q=-0.0 size=N/A time=00:12:16.27 bitrate=N/A speed=  19x    frame=17898 fps=457 q=-0.0 size=N/A time=00:12:26.49 bitrate=N/A speed=19.1x    frame=18133 fps=457 q=-0.0 size=N/A time=00:12:36.29 bitrate=N/A speed=19.1x    frame=18365 fps=457 q=-0.0 size=N/A time=00:12:45.97 bitrate=N/A speed=  19x    frame=18585 fps=456 q=-0.0 size=N/A time=00:12:55.14 bitrate=N/A speed=  19x    frame=18867 fps=457 q=-0.0 size=N/A time=00:13:06.91 bitrate=N/A speed=19.1x    frame=19090 fps=457 q=-0.0 size=N/A time=00:13:16.21 bitrate=N/A speed=19.1x    frame=19270 fps=456 q=-0.0 size=N/A time=00:13:23.71 bitrate=N/A speed=  19x    frame=19483 fps=455 q=-0.0 size=N/A time=00:13:32.60 bitrate=N/A speed=  19x    frame=19732 fps=456 q=-0.0 size=N/A time=00:13:42.98 bitrate=N/A speed=  19x    frame=19992 fps=456 q=-0.0 size=N/A time=00:13:53.83 bitrate=N/A speed=  19x    frame=20241 fps=457 q=-0.0 size=N/A time=00:14:04.21 bitrate=N/A speed=  19x    frame=20505 fps=457 q=-0.0 size=N/A time=00:14:15.22 bitrate=N/A speed=19.1x    frame=20768 fps=458 q=-0.0 size=N/A time=00:14:26.19 bitrate=N/A speed=19.1x    frame=21018 fps=458 q=-0.0 size=N/A time=00:14:36.62 bitrate=N/A speed=19.1x    frame=21274 fps=459 q=-0.0 size=N/A time=00:14:47.30 bitrate=N/A speed=19.1x    frame=21515 fps=459 q=-0.0 size=N/A time=00:14:57.35 bitrate=N/A speed=19.1x    frame=21741 fps=458 q=-0.0 size=N/A time=00:15:06.78 bitrate=N/A speed=19.1x    frame=21973 fps=458 q=-0.0 size=N/A time=00:15:16.45 bitrate=N/A speed=19.1x    frame=22194 fps=458 q=-0.0 size=N/A time=00:15:25.67 bitrate=N/A speed=19.1x    frame=22432 fps=458 q=-0.0 size=N/A time=00:15:35.60 bitrate=N/A speed=19.1x    frame=22656 fps=458 q=-0.0 size=N/A time=00:15:44.94 bitrate=N/A speed=19.1x    frame=22908 fps=458 q=-0.0 size=N/A time=00:15:55.45 bitrate=N/A speed=19.1x    frame=23185 fps=459 q=-0.0 size=N/A time=00:16:07.00 bitrate=N/A speed=19.1x    frame=23452 fps=459 q=-0.0 size=N/A time=00:16:18.14 bitrate=N/A speed=19.2x    frame=23709 fps=460 q=-0.0 size=N/A time=00:16:28.86 bitrate=N/A speed=19.2x    frame=23962 fps=460 q=-0.0 size=N/A time=00:16:39.41 bitrate=N/A speed=19.2x    frame=24175 fps=460 q=-0.0 size=N/A time=00:16:48.29 bitrate=N/A speed=19.2x    frame=24376 fps=459 q=-0.0 size=N/A time=00:16:56.68 bitrate=N/A speed=19.1x    frame=24586 fps=458 q=-0.0 size=N/A time=00:17:05.44 bitrate=N/A speed=19.1x    frame=24788 fps=458 q=-0.0 size=N/A time=00:17:13.86 bitrate=N/A speed=19.1x    frame=24973 fps=457 q=-0.0 size=N/A time=00:17:21.58 bitrate=N/A speed=19.1x    frame=25167 fps=456 q=-0.0 size=N/A time=00:17:29.67 bitrate=N/A speed=  19x    frame=25342 fps=455 q=-0.0 size=N/A time=00:17:36.97 bitrate=N/A speed=  19x    frame=25589 fps=455 q=-0.0 size=N/A time=00:17:47.27 bitrate=N/A speed=  19x    frame=25795 fps=455 q=-0.0 size=N/A time=00:17:55.86 bitrate=N/A speed=  19x    frame=26059 fps=455 q=-0.0 size=N/A time=00:18:06.87 bitrate=N/A speed=  19x    frame=26311 fps=456 q=-0.0 size=N/A time=00:18:17.38 bitrate=N/A speed=  19x    frame=26602 fps=456 q=-0.0 size=N/A time=00:18:29.52 bitrate=N/A speed=  19x    frame=26858 fps=457 q=-0.0 size=N/A time=00:18:40.20 bitrate=N/A speed=19.1x    frame=27138 fps=458 q=-0.0 size=N/A time=00:18:51.88 bitrate=N/A speed=19.1x    frame=27410 fps=458 q=-0.0 size=N/A time=00:19:03.22 bitrate=N/A speed=19.1x    frame=27662 fps=458 q=-0.0 size=N/A time=00:19:13.73 bitrate=N/A speed=19.1x    frame=27897 fps=458 q=-0.0 size=N/A time=00:19:23.53 bitrate=N/A speed=19.1x    frame=28163 fps=459 q=-0.0 size=N/A time=00:19:34.63 bitrate=N/A speed=19.1x    frame=28407 fps=459 q=-0.0 size=N/A time=00:19:44.80 bitrate=N/A speed=19.1x    frame=28626 fps=459 q=-0.0 size=N/A time=00:19:53.94 bitrate=N/A speed=19.1x    frame=28871 fps=459 q=-0.0 size=N/A time=00:20:04.16 bitrate=N/A speed=19.1x    frame=29126 fps=459 q=-0.0 size=N/A time=00:20:14.79 bitrate=N/A speed=19.1x    frame=29363 fps=459 q=-0.0 size=N/A time=00:20:24.68 bitrate=N/A speed=19.2x    frame=29657 fps=460 q=-0.0 size=N/A time=00:20:36.94 bitrate=N/A speed=19.2x    frame=29934 fps=461 q=-0.0 size=N/A time=00:20:48.49 bitrate=N/A speed=19.2x    frame=30194 fps=461 q=-0.0 size=N/A time=00:20:59.34 bitrate=N/A speed=19.2x    frame=30444 fps=461 q=-0.0 size=N/A time=00:21:09.76 bitrate=N/A speed=19.2x    frame=30672 fps=461 q=-0.0 size=N/A time=00:21:19.27 bitrate=N/A speed=19.2x    frame=30886 fps=461 q=-0.0 size=N/A time=00:21:28.20 bitrate=N/A speed=19.2x    frame=31092 fps=460 q=-0.0 size=N/A time=00:21:36.79 bitrate=N/A speed=19.2x    frame=31327 fps=460 q=-0.0 size=N/A time=00:21:46.59 bitrate=N/A speed=19.2x    frame=31560 fps=460 q=-0.0 size=N/A time=00:21:56.31 bitrate=N/A speed=19.2x    frame=31800 fps=460 q=-0.0 size=N/A time=00:22:06.32 bitrate=N/A speed=19.2x    frame=32014 fps=460 q=-0.0 size=N/A time=00:22:15.25 bitrate=N/A speed=19.2x    frame=32215 fps=459 q=-0.0 size=N/A time=00:22:23.63 bitrate=N/A speed=19.2x    frame=32444 fps=459 q=-0.0 size=N/A time=00:22:33.18 bitrate=N/A speed=19.2x    frame=32697 fps=459 q=-0.0 size=N/A time=00:22:43.73 bitrate=N/A speed=19.2x    frame=32958 fps=460 q=-0.0 size=N/A time=00:22:54.62 bitrate=N/A speed=19.2x    frame=33241 fps=460 q=-0.0 size=N/A time=00:23:06.42 bitrate=N/A speed=19.2x    frame=33508 fps=461 q=-0.0 size=N/A time=00:23:17.56 bitrate=N/A speed=19.2x    frame=33782 fps=461 q=-0.0 size=N/A time=00:23:28.99 bitrate=N/A speed=19.2x    frame=34021 fps=461 q=-0.0 size=N/A time=00:23:38.95 bitrate=N/A speed=19.2x    [Parsed_psnr_10 @ 0000022629d4ba40] PSNR y:48.853969 u:48.721265 v:49.124419 average:48.875263 min:40.599086 max:inf
[out#0/null @ 000002262a001440] video:14696KiB audio:267492KiB subtitle:0KiB other streams:0KiB global headers:0KiB muxing overhead: unknown
frame=34202 fps=461 q=-0.0 Lsize=N/A time=00:23:46.50 bitrate=N/A speed=19.2x    
